<svg width="1143" height="342" viewBox="0 0 1143 342" fill="none" xmlns="http://www.w3.org/2000/svg">
<path d="M158.061 112.424C179.106 78.3237 205.032 82.3007 239.747 82.2834C244.876 82.4874 251.776 84.1616 252.422 90.2551C254.185 101.918 236.587 100.865 228.765 100.427C163.253 96.7587 167.091 130.64 167.135 184.018L167.149 279.021C184.717 285.126 194.353 302.151 187.947 320.098C185.076 328.08 179.162 334.599 171.496 338.229C163.296 342.04 154.812 341.994 146.433 338.795C138.575 335.76 132.241 329.732 128.819 322.032C120.479 303.063 131.436 286.412 149.135 278.88L149.271 184.665C149.276 173.902 149.911 145.766 148.3 136.207C147.061 129.125 144.192 122.427 139.918 116.646C126.571 98.584 108.172 99.9305 88.2676 100.525C83.8248 100.468 79.3323 101.079 74.9239 100.304C62.6974 98.1539 58.8429 89.8004 70.3995 82.6076C79.989 82.0787 90.0477 82.6892 99.5997 82.3352C126.11 81.3533 143.763 89.4401 158.061 112.424ZM172.655 305.314C170.416 297.414 162.259 292.767 154.323 294.87C149.067 296.264 144.972 300.386 143.61 305.653C142.248 310.918 143.833 316.509 147.756 320.277C151.678 324.044 157.327 325.402 162.532 323.828C170.391 321.452 174.895 313.214 172.655 305.314Z" fill="#CD0029"/>
<path d="M17.4735 72.0769C25.395 71.1812 31.2652 71.563 37.8652 76.8616C42.7079 80.6973 45.7785 86.3417 46.3687 92.4917C48.2707 112.92 29.7944 112.031 32.4667 121.425C42.2347 155.762 88.281 128.751 110.75 146.83C119.148 153.587 124.483 160.696 126.45 172.058C128.771 196.703 131.108 226.914 99.6569 232.164C90.6569 247.217 77.3467 251.036 62.8605 240.492C61.6612 239.139 60.1575 237.443 59.1877 235.939C55.7737 230.74 54.573 224.394 55.851 218.306C57.177 212.285 60.8782 207.054 66.1155 203.8C80.0722 195.12 92.514 202.553 100.058 215.223C113.455 206.236 109.705 197.955 110.041 184.157C111.054 152.613 83.544 156.808 61.134 157.546C36.1702 158.368 15.1567 143.338 15.0487 116.688C8.38495 113.083 4.0882 109.918 1.34845 102.381C-0.729047 96.5531 -0.395291 90.1368 2.27546 84.5554C5.59346 77.6403 10.5922 74.5615 17.4735 72.0769Z" fill="black"/>
<path d="M286.696 72.1249C297.716 70.6058 307.475 73.0851 313.297 83.3776C316.326 88.806 317.05 95.223 315.308 101.19C312.969 109.022 308.165 112.816 301.313 116.431C300.844 130.908 298.303 135.712 288.679 146.437C270.715 166.457 234.593 150.971 216.656 160.748C212.113 163.2 208.798 167.439 207.514 172.441C205.465 180.124 202.935 210.889 214.807 213.648C218.77 214.568 222.739 204.841 227.25 202.841C232.534 200.498 238.354 199.435 244.128 200.988C250.134 202.632 255.199 206.675 258.135 212.168C262.055 219.401 261.415 225.244 259.193 232.712C256.624 237.242 254.33 240.299 249.808 243.119C244.89 246.214 238.927 247.184 233.282 245.807C225.165 243.845 221.071 239.023 216.984 232.306C201.109 229.203 189.571 218.66 189.095 201.649C188.82 191.826 188.011 178.871 190.319 169.502C192.017 162.452 195.659 156.021 200.831 150.94C228.829 123.642 275.163 160.692 284.978 116.954C278.783 113.609 274.737 110.46 271.816 103.727C269.365 97.983 269.313 91.4969 271.669 85.7137C274.604 78.4812 279.872 75.0281 286.696 72.1249Z" fill="black"/>
<path d="M493.64 156.203C505.209 155.475 512.337 159.546 520.47 167.207L520.55 158.17L539.305 158.182L539.328 234.149L520.579 234.198C520.6 231.515 520.841 229.201 519.956 226.7C517.831 226.87 516.876 228.429 514.949 230.178C509.885 233.322 506.058 234.885 500.055 235.769C490.554 237.152 480.894 234.683 473.221 228.911C446.288 208.491 454.368 160.822 493.64 156.203ZM520.983 192.998C519.276 180.835 508.116 172.3 495.934 173.841C487.904 174.857 481.044 180.118 477.976 187.61C474.909 195.101 476.111 203.664 481.122 210.022C486.133 216.38 494.178 219.547 502.176 218.312C514.311 216.438 522.69 205.16 520.983 192.998Z" fill="black"/>
<path d="M979.175 155.914C1001.27 154.701 1020.22 171.495 1021.68 193.578C1023.14 215.659 1006.57 234.804 984.508 236.512C970.011 237.634 956.039 230.879 947.909 218.827C939.786 206.773 938.759 191.283 945.231 178.264C951.696 165.247 964.663 156.71 979.175 155.914ZM1003.69 194.144C1002.54 181.916 991.746 172.9 979.513 173.948C967.138 175.008 957.995 185.949 959.158 198.317C960.313 210.685 971.331 219.739 983.683 218.481C995.901 217.237 1004.83 206.373 1003.69 194.144Z" fill="#CD0029"/>
<path d="M1075.02 158.128L1090.76 158.126C1095.8 175.613 1102.06 193.221 1107.36 210.751C1112.71 193.256 1117.89 175.709 1122.9 158.114L1142.43 158.19L1136.77 175.265C1130.55 194.986 1123.63 214.472 1117.41 234.224L1098.88 234.259C1094.13 218.273 1088.21 201.161 1083 185.238C1078.01 197.469 1071.34 220.943 1067.12 234.211L1048.53 234.204C1041.38 209.724 1031.67 182.625 1023.56 158.176L1043.25 158.154C1047.33 174.349 1053.9 194.379 1058.77 210.709C1063.86 193.334 1069.65 175.485 1075.02 158.128Z" fill="#CD0029"/>
<path d="M622.626 156.199C644.886 154.39 662.826 170.535 663.823 192.678C663.966 195.835 663.853 199.135 663.793 202.3L605.203 202.405C610.258 222.785 631.933 225.44 645.673 210.585L651.711 213.767L660.823 219.133C625.821 262.098 562.464 217.552 594.434 170.87C600.753 161.642 611.991 157.582 622.626 156.199ZM645.591 188.318C641.766 176.713 635.038 171.439 622.371 172.627C611.819 175.369 609.381 178.371 605.031 188.231L629.729 188.319L645.591 188.318Z" fill="black"/>
<path d="M831.808 124.819C853.851 124.656 875.894 124.624 897.936 124.725L897.891 143.305L850.956 143.287C851.241 153.039 851.121 163.383 851.174 173.182L893.826 173.232C893.804 178.675 893.804 184.118 893.841 189.562L893.488 190.186C890.713 191.297 856.431 190.904 851.091 190.937L851.113 234.27C844.491 234.193 837.801 234.243 831.178 234.243C831.171 222.3 830.046 129.549 831.808 124.819Z" fill="#CD0029"/>
<path d="M383.964 124.693L469.594 124.765L469.573 143.299L436.764 143.346L436.744 201.214L436.824 234.205L416.858 234.172C416.403 204.26 416.787 173.409 416.745 143.388C406.157 143.107 394.524 143.323 383.852 143.332L383.964 124.693Z" fill="black"/>
<path d="M717.208 156.191C750.606 155.571 750.343 185.292 749.413 209.729C749.113 217.636 749.353 226.151 749.308 234.118L730.161 234.22C730.228 215.378 738.268 159.621 703.311 175.941C692.008 184.245 695.346 200.616 694.963 212.919C694.746 219.852 695.023 227.249 695.053 234.229L676.026 234.142L675.988 158.147L694.768 158.154L694.731 168.217C702.043 159.797 706.318 157.683 717.208 156.191Z" fill="black"/>
<path d="M788.841 135.074C789.411 134.989 789.958 135.239 790.603 135.413C791.698 138.64 791.196 154.028 791.143 158.104L811.318 158.141L811.213 174.024L791.053 174.041C791.196 182.643 790.978 191.202 790.723 199.804C790.558 205.315 790.138 212.17 795.021 215.95C799.626 219.517 805.483 218.133 810.793 217.392L812.406 233.55C809.271 234.215 805.963 234.696 802.783 235.209C764.368 239.104 771.913 199.834 772.176 174.05L758.218 174.037V158.109L772.116 158.139L772.056 138.454C777.388 137.636 783.501 136.196 788.841 135.074Z" fill="black"/>
<path d="M153.13 0.483924C167.42 -2.2655 181.269 6.97525 184.219 21.2295C187.17 35.483 178.128 49.4641 163.921 52.6172C154.549 54.6967 144.786 51.5676 138.367 44.4289C131.948 37.2902 129.87 27.2482 132.927 18.147C135.984 9.04652 143.704 2.29712 153.13 0.483924Z" fill="#CD0029"/>
<path d="M916.363 124.812L929.316 124.773L929.339 194.312C929.346 205.859 929.804 222.02 929.046 233.122C927.224 234.57 927.224 234.065 924.284 234.161L910.124 234.157C909.786 205.633 910.424 177.003 910.026 148.466C909.921 141.035 909.831 133.182 910.266 125.789C911.894 124.514 914.188 124.833 916.363 124.812Z" fill="#CD0029"/>
<path d="M555.209 124.726C561.37 124.564 568.11 124.708 574.319 124.719C574.898 160.458 574.543 198.309 574.305 234.11L555.154 234.155L555.209 124.726Z" fill="black"/>
</svg>
